# xmcd
#
# Track frame offsets:
#	180
#	12890
#	32830
#	50522
#	65945
#	91885
#	111367
#	133727
#	152680
#	166382
#	188545
#	204980
#
# Disc length: 2973 seconds
#
# Revision: 1
# Processed by: cddbd v1.5PL3 Copyright (c) Steve Scherf et al.
# Submitted via: MusicWizard 7.0.2
#
DISCID=a00b9b0c
DTITLE=Old Time Blues and Boogie Duo - Trouble In Mind
DYEAR=1989
DGENRE=Blues
TTITLE0=Dangerous Man
TTITLE1=The Devil Is A Woman
TTITLE2=Long Legged Woman
TTITLE3=Sugar Cup
TTITLE4=Worried Life Blues
TTITLE5=It Must Have Been The Devil
TTITLE6=Boogie Woogie Duet
TTITLE7=Wintertime Blues
TTITLE8=It's Allright
TTITLE9=Trouble In Mind
TTITLE10=Whisky Days
TTITLE11=Hesitation Blues
EXTD=
EXTT0=
EXTT1=
EXTT2=
EXTT3=
EXTT4=
EXTT5=
EXTT6=
EXTT7=
EXTT8=
EXTT9=
EXTT10=
EXTT11=
PLAYORDER=
